<?xml version="1.0" encoding="UTF-8"?>
<svg version="1.1" xmlns="http://www.w3.org/2000/svg" width="48" height="48">
<path d="M0 0 C1.02802734 0.00966797 2.05605469 0.01933594 3.11523438 0.02929688 C4.72301758 0.06700195 4.72301758 0.06700195 6.36328125 0.10546875 C7.44673828 0.11900391 8.53019531 0.13253906 9.64648438 0.14648438 C12.3234153 0.18186232 14.99934963 0.23122686 17.67578125 0.29296875 C17.87129463 1.89617849 18.05690108 3.50059861 18.23828125 5.10546875 C18.39490234 6.44544922 18.39490234 6.44544922 18.5546875 7.8125 C18.67578125 10.29296875 18.67578125 10.29296875 17.67578125 13.29296875 C18.86102122 14.8971109 18.86102122 14.8971109 20.67578125 16.29296875 C22.32578125 16.29296875 23.97578125 16.29296875 25.67578125 16.29296875 C25.67578125 24.21296875 25.67578125 32.13296875 25.67578125 40.29296875 C23.36578125 40.95296875 21.05578125 41.61296875 18.67578125 42.29296875 C17.14431747 45.29891296 17.14431747 45.29891296 16.67578125 48.29296875 C7.00911458 48.29296875 -2.65755208 48.29296875 -12.32421875 48.29296875 C-14.76926013 40.58015528 -14.76847845 32.8095542 -14.94921875 24.79296875 C-14.98747172 23.38409237 -15.0265275 21.97523755 -15.06640625 20.56640625 C-15.16022408 17.14205548 -15.24592091 13.71770367 -15.32421875 10.29296875 C-14.54046875 9.98359375 -13.75671875 9.67421875 -12.94921875 9.35546875 C-10.40091747 8.36421837 -10.40091747 8.36421837 -8.32421875 7.29296875 C-8.32421875 7.95296875 -8.32421875 8.61296875 -8.32421875 9.29296875 C-7.33421875 9.62296875 -6.34421875 9.95296875 -5.32421875 10.29296875 C-5.32421875 6.77580572 -6.1486746 5.92175127 -8.32421875 3.29296875 C-5.79060787 0.07680384 -4.00404798 -0.06636544 0 0 Z M0.67578125 8.29296875 C0.34578125 8.95296875 0.01578125 9.61296875 -0.32421875 10.29296875 C0.66578125 9.96296875 1.65578125 9.63296875 2.67578125 9.29296875 C2.01578125 8.96296875 1.35578125 8.63296875 0.67578125 8.29296875 Z M-4.32421875 13.29296875 C-4.65421875 13.95296875 -4.98421875 14.61296875 -5.32421875 15.29296875 C-4.66421875 15.29296875 -4.00421875 15.29296875 -3.32421875 15.29296875 C-3.65421875 14.63296875 -3.98421875 13.97296875 -4.32421875 13.29296875 Z M-4.32421875 17.29296875 C-3.32421875 19.29296875 -3.32421875 19.29296875 -3.32421875 19.29296875 Z M-10.32421875 21.29296875 C-9.99421875 22.28296875 -9.66421875 23.27296875 -9.32421875 24.29296875 C-8.99421875 23.30296875 -8.66421875 22.31296875 -8.32421875 21.29296875 C-8.98421875 21.29296875 -9.64421875 21.29296875 -10.32421875 21.29296875 Z M-6.32421875 23.29296875 C-6.65421875 24.61296875 -6.98421875 25.93296875 -7.32421875 27.29296875 C-6.33421875 25.97296875 -5.34421875 24.65296875 -4.32421875 23.29296875 C-4.98421875 23.29296875 -5.64421875 23.29296875 -6.32421875 23.29296875 Z M-11.32421875 24.29296875 C-10.32421875 28.29296875 -10.32421875 28.29296875 -10.32421875 28.29296875 Z M3.67578125 24.29296875 C3.67578125 24.95296875 3.67578125 25.61296875 3.67578125 26.29296875 C4.33578125 25.96296875 4.99578125 25.63296875 5.67578125 25.29296875 C5.01578125 24.96296875 4.35578125 24.63296875 3.67578125 24.29296875 Z M16.67578125 27.29296875 C17.67578125 29.29296875 17.67578125 29.29296875 17.67578125 29.29296875 Z M-7.32421875 28.29296875 C-7.32421875 28.95296875 -7.32421875 29.61296875 -7.32421875 30.29296875 C-6.66421875 29.96296875 -6.00421875 29.63296875 -5.32421875 29.29296875 C-5.98421875 28.96296875 -6.64421875 28.63296875 -7.32421875 28.29296875 Z M6.67578125 28.29296875 C6.67578125 28.95296875 6.67578125 29.61296875 6.67578125 30.29296875 C7.33578125 30.29296875 7.99578125 30.29296875 8.67578125 30.29296875 C8.67578125 29.63296875 8.67578125 28.97296875 8.67578125 28.29296875 C8.01578125 28.29296875 7.35578125 28.29296875 6.67578125 28.29296875 Z M-11.32421875 30.29296875 C-10.32421875 32.29296875 -10.32421875 32.29296875 -10.32421875 32.29296875 Z M-1.32421875 31.29296875 C-0.32421875 34.29296875 -0.32421875 34.29296875 -0.32421875 34.29296875 Z M0.67578125 32.29296875 C0.67578125 32.95296875 0.67578125 33.61296875 0.67578125 34.29296875 C1.99578125 34.29296875 3.31578125 34.29296875 4.67578125 34.29296875 C4.67578125 33.63296875 4.67578125 32.97296875 4.67578125 32.29296875 C3.35578125 32.29296875 2.03578125 32.29296875 0.67578125 32.29296875 Z M-11.32421875 34.29296875 C-10.32421875 36.29296875 -10.32421875 36.29296875 -10.32421875 36.29296875 Z M-7.32421875 37.29296875 C-6.32421875 39.29296875 -6.32421875 39.29296875 -6.32421875 39.29296875 Z M-9.32421875 41.29296875 C-9.32421875 42.61296875 -9.32421875 43.93296875 -9.32421875 45.29296875 C-5.61142406 46.53056698 -2.01115529 46.64905772 1.86328125 46.85546875 C2.61287109 46.89865234 3.36246094 46.94183594 4.13476562 46.98632812 C5.981565 47.0921956 7.82864959 47.19306635 9.67578125 47.29296875 C9.34578125 45.31296875 9.01578125 43.33296875 8.67578125 41.29296875 C2.73578125 41.29296875 -3.20421875 41.29296875 -9.32421875 41.29296875 Z " fill="#837374" transform="translate(22.32421875,-0.29296875)"/>
<path d="M0 0 C2.64 0.33 5.28 0.66 8 1 C8 3.64 8 6.28 8 9 C8.66 9 9.32 9 10 9 C10.02705729 10.77074917 10.04642195 12.54161711 10.0625 14.3125 C10.07410156 15.29863281 10.08570312 16.28476562 10.09765625 17.30078125 C10 20 10 20 9 23 C8.01 22.67 7.02 22.34 6 22 C5.90912109 23.17369141 5.90912109 23.17369141 5.81640625 24.37109375 C5.73261719 25.38300781 5.64882813 26.39492188 5.5625 27.4375 C5.48128906 28.44683594 5.40007813 29.45617187 5.31640625 30.49609375 C5 33 5 33 4 34 C2.51361008 34.15655027 1.02050873 34.25066943 -0.47265625 34.31640625 C-1.37177734 34.35830078 -2.27089844 34.40019531 -3.19726562 34.44335938 C-4.61555664 34.50233398 -4.61555664 34.50233398 -6.0625 34.5625 C-7.01189453 34.60568359 -7.96128906 34.64886719 -8.93945312 34.69335938 C-11.29281353 34.79979276 -13.64628354 34.90181008 -16 35 C-16 35.66 -16 36.32 -16 37 C-11.83165104 38.38944965 -7.63142156 38.35152111 -3.2734375 38.51757812 C-1.51064445 38.60881644 0.24655504 38.79703561 2 39 C2.33 39.66 2.66 40.32 3 41 C-4.33333333 41 -11.66666667 41 -19 41 C-20.69832609 35.16200408 -21.25287193 30.06892629 -21 24 C-20.01 24 -19.02 24 -18 24 C-17.89042969 23.36191406 -17.78085937 22.72382813 -17.66796875 22.06640625 C-17.43013672 20.82697266 -17.43013672 20.82697266 -17.1875 19.5625 C-17.03667969 18.73878906 -16.88585937 17.91507813 -16.73046875 17.06640625 C-16.36888672 16.04353516 -16.36888672 16.04353516 -16 15 C-15.01 14.67 -14.02 14.34 -13 14 C-13 12.35 -13 10.7 -13 9 C-11.68 8.34 -10.36 7.68 -9 7 C-7.5 8.3125 -7.5 8.3125 -6 10 C-6 10.99 -6 11.98 -6 13 C-1.545 12.505 -1.545 12.505 3 12 C2.55282671 8.31085253 2.55282671 8.31085253 0.375 5.4375 C-0.305625 4.7259375 -0.305625 4.7259375 -1 4 C-0.6875 1.8125 -0.6875 1.8125 0 0 Z M-11 10 C-10 12 -10 12 -10 12 Z M-13 16 C-13.33 17.32 -13.66 18.64 -14 20 C-13.01 18.68 -12.02 17.36 -11 16 C-11.66 16 -12.32 16 -13 16 Z M-3 17 C-3 17.66 -3 18.32 -3 19 C-2.34 18.67 -1.68 18.34 -1 18 C-1.66 17.67 -2.32 17.34 -3 17 Z M-14 21 C-14 21.66 -14 22.32 -14 23 C-13.34 22.67 -12.68 22.34 -12 22 C-12.66 21.67 -13.32 21.34 -14 21 Z M0 21 C0 21.66 0 22.32 0 23 C0.66 23 1.32 23 2 23 C2 22.34 2 21.68 2 21 C1.34 21 0.68 21 0 21 Z M-8 24 C-7 27 -7 27 -7 27 Z M-6 25 C-6 25.66 -6 26.32 -6 27 C-4.68 27 -3.36 27 -2 27 C-2 26.34 -2 25.68 -2 25 C-3.32 25 -4.64 25 -6 25 Z M-18 27 C-17 29 -17 29 -17 29 Z M-14 30 C-13 32 -13 32 -13 32 Z " fill="#807F7D" transform="translate(29,7)"/>
<path d="M0 0 C2.97 0.33 5.94 0.66 9 1 C9 8.92 9 16.84 9 25 C6.69 25.66 4.38 26.32 2 27 C0.46853622 30.00594421 0.46853622 30.00594421 0 33 C-2.8125 33.3125 -2.8125 33.3125 -6 33 C-7.875 30.5 -7.875 30.5 -9 28 C-8.34 27.38125 -7.68 26.7625 -7 26.125 C-4.20485938 21.75759279 -4.64711756 18.04817939 -5 13 C-3.68 13.66 -2.36 14.32 -1 15 C0.04225175 9.91902274 0.07822869 5.16309352 0 0 Z M0 12 C1 14 1 14 1 14 Z " fill="#7E6D6F" transform="translate(39,15)"/>
<path d="M0 0 C0.92039062 0.72123047 0.92039062 0.72123047 1.859375 1.45703125 C3.98309064 2.98781168 5.45457486 3.5454598 8 4 C8.26743699 9.21502137 7.44060194 14.00521226 6 19 C5 20 5 20 2.125 20.375 C0.578125 20.189375 0.578125 20.189375 -1 20 C-2.875 17.5 -2.875 17.5 -4 15 C-3.34 14.38125 -2.68 13.7625 -2 13.125 C0.79514062 8.75759279 0.35288244 5.04817939 0 0 Z " fill="#8C6770" transform="translate(34,28)"/>
<path d="M0 0 C5 3 5 3 5.9375 6.5 C6 10 6 10 4 13 C2.68 12.67 1.36 12.34 0 12 C0 8.04 0 4.08 0 0 Z " fill="#C94075" transform="translate(34,28)"/>
<path d="M0 0 C2.38564077 0.57584432 4.66682784 1.22227595 7 2 C10.24269347 2.22548531 13.47879154 2.39382477 16.7265625 2.51757812 C18.48935555 2.60881644 20.24655504 2.79703561 22 3 C22.33 3.66 22.66 4.32 23 5 C15.66666667 5 8.33333333 5 1 5 C0.67 3.35 0.34 1.7 0 0 Z " fill="#807071" transform="translate(9,43)"/>
<path d="M0 0 C0.33 0.66 0.66 1.32 1 2 C1.66 2.33 2.32 2.66 3 3 C3 3.66 3 4.32 3 5 C1.68 5 0.36 5 -1 5 C-1.33 6.32 -1.66 7.64 -2 9 C-2.33 9 -2.66 9 -3 9 C-3.33 11.97 -3.66 14.94 -4 18 C-4.33 18 -4.66 18 -5 18 C-5.19504458 15.89651926 -5.38078496 13.79217415 -5.5625 11.6875 C-5.66691406 10.51574219 -5.77132813 9.34398437 -5.87890625 8.13671875 C-6 5 -6 5 -5 2 C-3 1.375 -3 1.375 -1 1 C-0.67 0.67 -0.34 0.34 0 0 Z " fill="#716665" transform="translate(13,7)"/>
<path d="M0 0 C2.31 0.33 4.62 0.66 7 1 C7.38218767 2.65614657 7.71395102 4.32457024 8 6 C7 7 7 7 3.4375 7.0625 C2.303125 7.041875 1.16875 7.02125 0 7 C0 4.69 0 2.38 0 0 Z " fill="#C44774" transform="translate(24,12)"/>
<path d="" fill="#7F7171" transform="translate(0,0)"/>
</svg>
